<svg width="48" height="48" viewBox="0 0 48 48" fill="none" xmlns="http://www.w3.org/2000/svg">
<g clip-path="url(#clip0_1337_66437)">
<path d="M35.9989 6V8H47.9989V12H35.9989V16H47.9989V20H35.9989V24H47.9989V28H35.9989V32H47.9989V36H35.9989V48H31.9989V6C31.9989 4.4087 32.631 2.88258 33.7562 1.75736C34.8814 0.632141 36.4076 0 37.9989 0L47.9989 0V4H37.9989C37.4684 4 36.9597 4.21071 36.5847 4.58579C36.2096 4.96086 35.9989 5.46957 35.9989 6V6ZM27.9989 40C28.0061 41.6288 27.5138 43.2207 26.5885 44.5611C25.6631 45.9015 24.3491 46.926 22.8235 47.4966C21.2978 48.0672 19.634 48.1563 18.0561 47.7522C16.4783 47.348 15.0622 46.4698 13.9989 45.236C13.1605 46.2004 12.1027 46.9493 10.9145 47.4196C9.7264 47.89 8.44265 48.068 7.17134 47.9388C5.90002 47.8096 4.67835 47.3769 3.60912 46.6772C2.5399 45.9774 1.65441 45.031 1.02718 43.9177C0.399952 42.8043 0.0493357 41.5566 0.00483885 40.2795C-0.039658 39.0024 0.223267 37.7334 0.771486 36.5791C1.3197 35.4248 2.13718 34.4191 3.1551 33.6466C4.17303 32.8741 5.36163 32.3574 6.62087 32.14L11.8229 20L8.52487 12.302C6.85387 8.41615 5.9943 4.2299 5.99887 0L9.99887 0C9.99376 3.68853 10.7424 7.3392 12.1989 10.728L13.9989 14.928L15.7989 10.728C17.2553 7.3392 18.004 3.68853 17.9989 0H21.9989C22.0034 4.2299 21.1439 8.41615 19.4729 12.302L16.1749 20L21.3749 32.14C23.2264 32.4633 24.905 33.4282 26.1162 34.8654C27.3275 36.3026 27.994 38.1205 27.9989 40ZM11.9989 40C11.9989 39.2089 11.7643 38.4355 11.3247 37.7777C10.8852 37.1199 10.2605 36.6072 9.5296 36.3045C8.79869 36.0017 7.99443 35.9225 7.2185 36.0769C6.44258 36.2312 5.72985 36.6122 5.17044 37.1716C4.61103 37.731 4.23007 38.4437 4.07572 39.2196C3.92138 39.9956 4.0006 40.7998 4.30335 41.5307C4.6061 42.2616 5.11879 42.8864 5.77658 43.3259C6.43438 43.7654 7.20774 44 7.99887 44C9.05973 44 10.0771 43.5786 10.8273 42.8284C11.5774 42.0783 11.9989 41.0609 11.9989 40ZM13.9989 34.764C14.8641 33.7669 15.9638 33.0005 17.1989 32.534L13.9989 25.076L10.7989 32.534C12.0339 33.0005 13.1336 33.7669 13.9989 34.764V34.764ZM23.9989 40C23.9989 39.2089 23.7643 38.4355 23.3247 37.7777C22.8852 37.1199 22.2605 36.6072 21.5296 36.3045C20.7987 36.0017 19.9944 35.9225 19.2185 36.0769C18.4426 36.2312 17.7298 36.6122 17.1704 37.1716C16.611 37.731 16.2301 38.4437 16.0757 39.2196C15.9214 39.9956 16.0006 40.7998 16.3033 41.5307C16.6061 42.2616 17.1188 42.8864 17.7766 43.3259C18.4344 43.7654 19.2077 44 19.9989 44C21.0597 44 22.0771 43.5786 22.8273 42.8284C23.5774 42.0783 23.9989 41.0609 23.9989 40Z" fill="#5B24C6"/>
</g>
<defs>
<clipPath id="clip0_1337_66437">
<rect width="48" height="48" fill="white"/>
</clipPath>
</defs>
</svg>
