<svg width="48" height="48" viewBox="0 0 48 48" fill="none" xmlns="http://www.w3.org/2000/svg">
<g clip-path="url(#clip0_1337_66429)">
<path d="M42 4H36V0H32V4H16V0H12V4H6C4.4087 4 2.88258 4.63214 1.75736 5.75736C0.632141 6.88258 0 8.4087 0 10L0 48H48V10C48 8.4087 47.3679 6.88258 46.2426 5.75736C45.1174 4.63214 43.5913 4 42 4ZM4 10C4 9.46957 4.21071 8.96086 4.58579 8.58579C4.96086 8.21071 5.46957 8 6 8H42C42.5304 8 43.0391 8.21071 43.4142 8.58579C43.7893 8.96086 44 9.46957 44 10V16H4V10ZM4 44V20H44V44H4Z" fill="#5B24C6"/>
<path d="M34 26H30V30H34V26Z" fill="#5B24C6"/>
<path d="M26 26H22V30H26V26Z" fill="#5B24C6"/>
<path d="M18 26H14V30H18V26Z" fill="#5B24C6"/>
<path d="M34 34H30V38H34V34Z" fill="#5B24C6"/>
<path d="M26 34H22V38H26V34Z" fill="#5B24C6"/>
<path d="M18 34H14V38H18V34Z" fill="#5B24C6"/>
</g>
<defs>
<clipPath id="clip0_1337_66429">
<rect width="48" height="48" fill="white"/>
</clipPath>
</defs>
</svg>
