<svg width="48" height="48" viewBox="0 0 48 48" fill="none" xmlns="http://www.w3.org/2000/svg">
<g clip-path="url(#clip0_1337_66422)">
<path d="M23.9183 48.0131L22.5242 46.8181C20.6022 45.2088 3.82031 30.7153 3.82031 20.1137C3.82031 9.01384 12.8185 0.015625 23.9183 0.015625C35.0182 0.015625 44.0164 9.01384 44.0164 20.1137C44.0164 30.7154 27.2345 45.2088 25.3205 46.826L23.9183 48.0131ZM23.9183 4.36141C15.2228 4.37125 8.17603 11.418 8.16619 20.1136C8.16619 26.7738 18.4911 37.4132 23.9183 42.2829C29.3457 37.4113 39.6705 26.7657 39.6705 20.1136C39.6607 11.418 32.614 4.37134 23.9183 4.36141Z" fill="#5B24C6"/>
<path d="M23.912 28.074C19.5121 28.074 15.9453 24.5072 15.9453 20.1073C15.9453 15.7074 19.5121 12.1406 23.912 12.1406C28.3119 12.1406 31.8787 15.7074 31.8787 20.1073C31.8787 24.5072 28.312 28.074 23.912 28.074ZM23.912 16.1239C21.7121 16.1239 19.9287 17.9073 19.9287 20.1072C19.9287 22.3072 21.7121 24.0906 23.912 24.0906C26.1119 24.0906 27.8953 22.3072 27.8953 20.1072C27.8953 17.9073 26.112 16.1239 23.912 16.1239Z" fill="#5B24C6"/>
</g>
<defs>
<clipPath id="clip0_1337_66422">
<rect width="48" height="48" fill="white"/>
</clipPath>
</defs>
</svg>
