<svg width="257" height="62" viewBox="0 0 257 62" fill="none" xmlns="http://www.w3.org/2000/svg">
<path opacity="0.85" d="M255.929 4.77793C256.202 4.81721 256.456 4.62748 256.495 4.35414C256.534 4.08081 256.344 3.82738 256.071 3.7881L255.929 4.77793ZM0.913583 58.4381C31.1859 63.7501 52.7271 61.6698 70.4078 55.8814C88.0715 50.0986 101.855 40.6199 116.574 31.2224C131.303 21.8191 147.005 12.47 168.582 6.83619C190.159 1.20229 217.644 -0.724036 255.929 4.77793L256.071 3.7881C217.685 -1.72839 190.062 0.194047 168.329 5.86863C146.596 11.5433 130.787 20.9624 116.036 30.3795C101.277 39.8025 87.6129 49.1965 70.0967 54.931C52.5976 60.66 31.2258 62.7418 1.08642 57.4531L0.913583 58.4381Z" fill="#FEE7C3"/>
<path d="M255.929 57.2221C256.202 57.1828 256.456 57.3725 256.495 57.6459C256.534 57.9192 256.344 58.1726 256.071 58.2119L255.929 57.2221ZM0.913583 3.56193C31.1859 -1.75008 52.7271 0.330189 70.4078 6.11861C88.0715 11.9014 101.855 21.3801 116.574 30.7776C131.303 40.1809 147.005 49.53 168.582 55.1638C190.159 60.7977 217.644 62.724 255.929 57.2221L256.071 58.2119C217.685 63.7284 190.062 61.806 168.329 56.1314C146.596 50.4567 130.787 41.0376 116.036 31.6205C101.277 22.1975 87.6129 12.8035 70.0967 7.06898C52.5976 1.34002 31.2258 -0.741802 1.08642 4.54689L0.913583 3.56193Z" fill="url(#paint0_linear_1337_66438)"/>
<defs>
<linearGradient id="paint0_linear_1337_66438" x1="1" y1="31" x2="256" y2="31" gradientUnits="userSpaceOnUse">
<stop stop-color="#FBB549"/>
<stop offset="0.494792" stop-color="#FADC73"/>
<stop offset="1" stop-color="#FCE289"/>
</linearGradient>
</defs>
</svg>
