<svg width="16" height="16" viewBox="0 0 16 16" fill="none" xmlns="http://www.w3.org/2000/svg">
<path d="M9.16019 9.56909L14.6521 8.74363C14.8037 8.72678 14.8037 8.50778 14.6521 8.49093L9.16019 7.66546C8.73903 7.59807 8.4021 7.26115 8.33472 6.83999L7.50925 1.34809C7.4924 1.19647 7.2734 1.19647 7.25655 1.34809L6.43108 6.83999C6.3637 7.26115 6.02677 7.59807 5.60561 7.66546L0.113713 8.49093C-0.0379042 8.50778 -0.0379042 8.72678 0.113713 8.74363L5.60561 9.56909C6.02677 9.63648 6.3637 9.97341 6.43108 10.3946L7.25655 15.8865C7.2734 16.0381 7.4924 16.0381 7.50925 15.8865L8.33472 10.3946C8.4021 9.97341 8.73903 9.63648 9.16019 9.56909Z" fill="url(#paint0_linear_1241_32285)"/>
<path d="M13.3529 3.94204L15.9473 3.55458C16.0147 3.53773 16.0147 3.43665 15.9473 3.43665L13.3529 3.04919C13.1508 3.01549 12.9992 2.86388 12.9655 2.66172L12.5612 0.050539C12.5443 -0.0168463 12.4432 -0.0168463 12.4432 0.050539L12.0558 2.64487C12.0221 2.84703 11.8705 2.99865 11.6683 3.03234L9.07398 3.4198C9.00659 3.43665 9.00659 3.53773 9.07398 3.53773L11.6683 3.92519C11.8705 3.95889 12.0221 4.1105 12.0558 4.31266L12.4432 6.90699C12.4601 6.97438 12.5612 6.97438 12.5612 6.90699L12.9486 4.31266C12.9823 4.12735 13.1508 3.97573 13.3529 3.94204Z" fill="url(#paint1_linear_1241_32285)"/>
<path d="M3.84979 13.0868L5.73658 12.8004C5.78711 12.8004 5.78711 12.7162 5.73658 12.7162L3.84979 12.4298C3.69817 12.413 3.58025 12.2951 3.5634 12.1434L3.27701 10.2567C3.27701 10.2061 3.19278 10.2061 3.19278 10.2567L2.90639 12.1434C2.88955 12.2951 2.77162 12.413 2.62001 12.4298L0.733217 12.7162C0.682678 12.7162 0.682678 12.8004 0.733217 12.8004L2.62001 13.0868C2.77162 13.1037 2.88955 13.2216 2.90639 13.3732L3.19278 15.26C3.19278 15.3106 3.27701 15.3106 3.27701 15.26L3.5634 13.3732C3.58025 13.2216 3.69817 13.1037 3.84979 13.0868Z" fill="url(#paint2_linear_1241_32285)"/>
<defs>
<linearGradient id="paint0_linear_1241_32285" x1="-6.06846e-09" y1="8.68147" x2="14.7658" y2="8.68147" gradientUnits="userSpaceOnUse">
<stop stop-color="#5B24C6"/>
<stop offset="0.479167" stop-color="#8949E1"/>
<stop offset="1" stop-color="#B971FF"/>
</linearGradient>
<linearGradient id="paint1_linear_1241_32285" x1="9.02344" y1="3.50901" x2="15.9978" y2="3.50901" gradientUnits="userSpaceOnUse">
<stop stop-color="#5B24C6"/>
<stop offset="0.479167" stop-color="#8949E1"/>
<stop offset="1" stop-color="#B971FF"/>
</linearGradient>
<linearGradient id="paint2_linear_1241_32285" x1="0.695312" y1="12.7804" x2="5.77448" y2="12.7804" gradientUnits="userSpaceOnUse">
<stop stop-color="#5B24C6"/>
<stop offset="0.479167" stop-color="#8949E1"/>
<stop offset="1" stop-color="#B971FF"/>
</linearGradient>
</defs>
</svg>
