<svg width="29" height="30" viewBox="0 0 29 30" fill="none" xmlns="http://www.w3.org/2000/svg">
<path d="M14.4995 0.742188C6.52608 0.742188 0.0625 7.22576 0.0625 15.2239C0.0625 23.222 6.52608 29.7056 14.4995 29.7056C22.473 29.7056 28.9365 23.222 28.9365 15.2239C28.9365 7.22576 22.473 0.742188 14.4995 0.742188ZM20.3721 12.6051C20.3781 12.7288 20.3796 12.8525 20.3796 12.9732C20.3796 16.7445 17.5208 21.0905 12.2904 21.0905C10.7448 21.0931 9.23146 20.6478 7.93218 19.8082C8.15325 19.8354 8.38033 19.846 8.61042 19.846C9.94284 19.846 11.1685 19.3919 12.1415 18.6256C11.5485 18.6139 10.974 18.4169 10.4979 18.0622C10.0219 17.7074 9.66801 17.2125 9.48566 16.6464C9.91149 16.7276 10.3502 16.7106 10.7685 16.5966C10.1249 16.4661 9.54612 16.1163 9.13031 15.6065C8.71451 15.0968 8.48726 14.4585 8.4871 13.7999V13.7652C8.87059 13.9779 9.30971 14.1076 9.77591 14.1227C9.17256 13.7198 8.74545 13.1009 8.58191 12.3926C8.41838 11.6843 8.53079 10.9401 8.89615 10.3122C9.61042 11.1931 10.5012 11.9138 11.5107 12.4276C12.5203 12.9413 13.6261 13.2367 14.7567 13.2945C14.6129 12.6825 14.6748 12.04 14.9326 11.4669C15.1905 10.8939 15.6299 10.4223 16.1824 10.1255C16.735 9.82875 17.3699 9.72344 17.9883 9.82594C18.6067 9.92844 19.1741 10.233 19.6021 10.6923C20.2385 10.566 20.8488 10.3319 21.4067 9.99991C21.1946 10.6608 20.7506 11.2221 20.157 11.5793C20.7207 11.5112 21.2712 11.3592 21.7902 11.1283C21.409 11.7014 20.9287 12.2015 20.3721 12.6051Z" fill="url(#paint0_linear_1670_54343)"/>
<defs>
<linearGradient id="paint0_linear_1670_54343" x1="0.0625" y1="15.3498" x2="28.9365" y2="15.3498" gradientUnits="userSpaceOnUse">
<stop stop-color="#5B24C6"/>
<stop offset="0.479167" stop-color="#8949E1"/>
<stop offset="1" stop-color="#B971FF"/>
</linearGradient>
</defs>
</svg>
