<svg width="34" height="34" viewBox="0 0 34 34" fill="none" xmlns="http://www.w3.org/2000/svg">
<path d="M16.8 0.21875C7.5215 0.21875 0 7.76353 0 17.0707C0 26.3779 7.5215 33.9227 16.8 33.9227C26.0785 33.9227 33.6 26.3779 33.6 17.0707C33.6 7.76353 26.0785 0.21875 16.8 0.21875ZM20.7795 11.8642H18.2543C17.955 11.8642 17.6225 12.2591 17.6225 12.784V14.6132H20.7813L20.3035 17.2217H17.6225V25.0526H14.6423V17.2217H11.9385V14.6132H14.6423V13.0789C14.6423 10.8776 16.1648 9.08886 18.2543 9.08886H20.7795V11.8642Z" fill="url(#paint0_linear_1528_54120)"/>
<defs>
<linearGradient id="paint0_linear_1528_54120" x1="-1.38089e-08" y1="17.2173" x2="33.6" y2="17.2173" gradientUnits="userSpaceOnUse">
<stop stop-color="#5B24C6"/>
<stop offset="0.479167" stop-color="#8949E1"/>
<stop offset="1" stop-color="#B971FF"/>
</linearGradient>
</defs>
</svg>
