<svg width="24" height="24" viewBox="0 0 24 24" fill="none" xmlns="http://www.w3.org/2000/svg">
<g clip-path="url(#clip0_1337_66748)">
<path d="M2.54381 15.255L0.651812 15.9C0.416563 15.2171 0.243853 14.5142 0.135813 13.8L2.11281 13.5C2.2033 14.0968 2.34756 14.6842 2.54381 15.255ZM3.28381 16.903L1.54181 17.886C1.89849 18.5165 2.31079 19.1139 2.77381 19.671L4.31181 18.393C3.92497 17.9272 3.58091 17.4276 3.28381 16.9V16.903ZM8.77481 0.439C8.07589 0.634065 7.39611 0.892122 6.74381 1.21L7.62081 3.01C8.16376 2.74444 8.72976 2.52888 9.31181 2.366L8.77481 0.439ZM4.30781 21.209C4.86339 21.6738 5.45981 22.0875 6.08981 22.445L7.07681 20.705C6.55128 20.4069 6.05362 20.0622 5.58981 19.675L4.30781 21.209ZM2.22381 9.9L0.267812 9.477C0.116675 10.1857 0.029657 10.9067 0.0078125 11.631L2.00781 11.691C2.02585 11.0887 2.09815 10.4893 2.22381 9.9ZM6.07381 3.95L4.88781 2.335C4.30455 2.76516 3.76104 3.24675 3.26381 3.774L4.71981 5.146C5.13399 4.70564 5.58717 4.30366 6.07381 3.945V3.95ZM3.60181 6.57L1.92381 5.482C1.52997 6.08955 1.19193 6.73151 0.913813 7.4L2.76081 8.167C2.99226 7.61032 3.27374 7.07579 3.60181 6.57ZM15.8088 21.25L16.5698 23.099C17.2405 22.8224 17.8848 22.4857 18.4948 22.093L17.4118 20.411C16.9036 20.738 16.3671 21.0188 15.8088 21.25ZM8.06781 23.34C8.75323 23.5772 9.4588 23.7516 10.1758 23.861L10.4758 21.884C9.87924 21.7926 9.29217 21.6473 8.72181 21.45L8.06781 23.34ZM20.9838 16.4L22.7838 17.283C23.1041 16.6316 23.3645 15.9525 23.5618 15.254L21.6358 14.712C21.4707 15.2935 21.2524 15.8585 20.9838 16.4ZM18.8388 19.3L20.2018 20.757C20.73 20.2617 21.2129 19.7202 21.6448 19.139L20.0448 17.946C19.6842 18.4325 19.2805 18.8857 18.8388 19.3ZM12.2858 22L12.3398 24C13.0647 23.9803 13.7862 23.8953 14.4958 23.746L14.0818 21.789C13.4907 21.913 12.8896 21.9836 12.2858 22ZM12.0018 0C11.6348 0 11.2708 0.017 10.9118 0.049L11.0928 2.041C11.3921 2.01367 11.6951 2 12.0018 2C14.6531 2.00291 17.1949 3.05742 19.0697 4.93215C20.9444 6.80688 21.9989 9.34873 22.0018 12C22.0018 12.307 21.9868 12.611 21.9608 12.911L23.9528 13.088C23.9848 12.73 24.0018 12.367 24.0018 12C23.9984 8.81846 22.733 5.76821 20.4833 3.51852C18.2336 1.26883 15.1834 0.00344108 12.0018 0V0ZM13.7248 13H17.0018V11H13.7248C13.5505 10.7004 13.3014 10.4513 13.0018 10.277V6H11.0018V10.277C10.7366 10.4297 10.5101 10.6414 10.3398 10.8958C10.1696 11.1501 10.0601 11.4402 10.02 11.7436C9.97988 12.047 10.0101 12.3556 10.1084 12.6454C10.2067 12.9353 10.3704 13.1986 10.5868 13.415C10.8032 13.6314 11.0666 13.7951 11.3564 13.8934C11.6462 13.9917 11.9548 14.0219 12.2582 13.9818C12.5616 13.9417 12.8517 13.8323 13.1061 13.662C13.3604 13.4917 13.5721 13.2652 13.7248 13Z" fill="#5B24C6"/>
</g>
<defs>
<clipPath id="clip0_1337_66748">
<rect width="24" height="24" fill="white"/>
</clipPath>
</defs>
</svg>
