<svg width="84" height="61" viewBox="0 0 84 61" fill="none" xmlns="http://www.w3.org/2000/svg">
<path d="M40.1953 40.2062C40.3284 47.6686 43.9405 54.3324 50.2616 57.2729C56.5826 60.2134 63.9933 58.6822 69.7694 53.9676L40.1953 40.2031V40.2062Z" fill="url(#paint0_linear_1455_54643)"/>
<path d="M55.8416 47.4766C51.1162 47.9214 48.3123 54.2116 51.7825 57.8733C57.7451 59.9382 64.454 58.3006 69.7717 53.9595L55.8416 47.4766Z" fill="url(#paint1_linear_1455_54643)"/>
<path opacity="0.54" d="M47.5001 43.6061L40.1875 40.2031C40.3206 47.6655 43.9327 54.3293 50.2538 57.2698C50.7511 57.5013 51.2576 57.7032 51.7698 57.881C51.7698 57.881 44.8122 53.9646 47.5001 43.6061Z" fill="url(#paint2_linear_1455_54643)"/>
<path d="M83.6826 36.9767C77.995 32.7126 69.208 31.247 60.3197 33.766C51.432 36.2854 44.7112 42.1453 42.0938 48.7651C47.7814 53.0287 56.5684 54.4944 65.4566 51.9754C74.3444 49.4564 81.0656 43.5965 83.6826 36.9767Z" fill="url(#paint3_linear_1455_54643)"/>
<path d="M83.088 36.5428C78.188 33.1632 71.2242 31.7446 63.9116 32.9612C51.0711 38.0353 55.346 53.1911 68.9386 50.7759C75.8047 47.9749 80.9945 43.112 83.4019 37.6613C83.4163 37.6287 83.4312 37.5957 83.4461 37.5605C83.5319 37.3643 83.612 37.1715 83.6891 36.9727C83.5201 36.8451 83.3485 36.7236 83.1738 36.6018C83.144 36.5811 83.1147 36.5604 83.0849 36.5397L83.088 36.5428Z" fill="url(#paint4_linear_1455_54643)"/>
<path opacity="0.54" d="M48.1071 40.3781C45.3653 42.8465 43.2959 45.725 42.0938 48.7601C47.7814 53.0241 56.5684 54.4898 65.4566 51.9708C66.6557 51.6293 67.8132 51.2289 68.9295 50.7718C68.9295 50.7718 52.8854 56.178 48.1071 40.375V40.3781Z" fill="url(#paint5_linear_1455_54643)"/>
<path d="M42.0938 48.76C52.7493 48.6592 62.3095 43.5526 66.5848 34.5238C70.8597 25.4945 68.7579 14.8456 62.0963 6.50781L42.0938 48.7569V48.76Z" fill="url(#paint6_linear_1455_54643)"/>
<path d="M52.6875 26.4085C53.2676 33.1884 62.2179 37.2862 67.4879 32.3546C70.5077 23.8239 68.2461 14.1866 62.1115 6.50781L52.6875 26.4116V26.4085Z" fill="url(#paint7_linear_1455_54643)"/>
<path opacity="0.54" d="M45.6257 38.6669L42.0938 46.1289C52.7493 46.0281 62.3095 40.9219 66.5848 31.8927C66.9223 31.1808 67.2152 30.4565 67.473 29.7266C67.473 29.7266 58.869 40.6456 45.6257 38.6669Z" fill="url(#paint8_linear_1455_54643)"/>
<path d="M44.0117 40.2062C43.8786 47.6686 40.2665 54.3324 33.9454 57.2729C27.6244 60.2134 20.2138 58.6822 14.4375 53.9676L44.0117 40.2031V40.2062Z" fill="url(#paint9_linear_1455_54643)"/>
<path d="M28.3674 47.4766C33.0927 47.9214 35.8967 54.2116 32.4269 57.8733C26.4639 59.9382 19.7549 58.3006 14.4375 53.9595L28.3674 47.4766Z" fill="url(#paint10_linear_1455_54643)"/>
<path opacity="0.54" d="M36.6989 43.6061L44.012 40.2031C43.8789 47.6655 40.2668 54.3293 33.9457 57.2698C33.4484 57.5013 32.9419 57.7032 32.4297 57.881C32.4297 57.881 39.3873 53.9646 36.6989 43.6061Z" fill="url(#paint11_linear_1455_54643)"/>
<path d="M0.507812 36.9767C6.19529 32.7126 14.9827 31.247 23.8707 33.766C32.7585 36.2854 39.4797 42.1453 42.0967 48.7651C36.4091 53.0287 27.622 54.4944 18.7339 51.9754C9.84583 49.4564 3.12507 43.5965 0.507812 36.9767Z" fill="url(#paint12_linear_1455_54643)"/>
<path d="M1.12446 36.5428C6.02442 33.1632 12.988 31.7446 20.3009 32.9612C33.1415 38.0353 28.8661 53.1911 15.2736 50.7759C8.40777 47.9749 3.2177 43.112 0.810619 37.6613C0.795822 37.6287 0.781026 37.5957 0.766229 37.5605C0.680381 37.3643 0.600443 37.1715 0.523438 36.9727C0.692201 36.8451 0.863941 36.7236 1.03861 36.6018C1.06821 36.5811 1.0978 36.5604 1.12744 36.5397L1.12446 36.5428Z" fill="url(#paint13_linear_1455_54643)"/>
<path opacity="0.54" d="M36.0802 40.3781C38.822 42.8465 40.8914 45.725 42.0935 48.7601C36.4059 53.0241 27.6189 54.4898 18.7307 51.9708C17.5316 51.6293 16.374 51.2289 15.2578 50.7718C15.2578 50.7718 31.3019 56.178 36.0802 40.375V40.3781Z" fill="url(#paint14_linear_1455_54643)"/>
<path d="M42.0971 48.76C31.4416 48.6592 21.8814 43.5526 17.6062 34.5238C13.331 25.4945 15.4331 14.8456 22.0946 6.50781L42.0971 48.7569V48.76Z" fill="url(#paint15_linear_1455_54643)"/>
<path d="M31.5291 26.4085C30.9486 33.1884 21.9982 37.2862 16.7284 32.3546C13.7085 23.8239 15.9705 14.1866 22.105 6.50781L31.5291 26.4116V26.4085Z" fill="url(#paint16_linear_1455_54643)"/>
<path opacity="0.54" d="M43.8471 52.5575L47.3791 60.0195C36.7236 59.9187 27.1634 54.8125 22.8882 45.7833C22.5507 45.0714 22.2576 44.3471 22 43.6172C22 43.6172 30.6039 54.5362 43.8471 52.5575Z" fill="url(#paint17_linear_1455_54643)"/>
<path d="M42.1004 0.6875C33.822 5.48834 28.25 14.452 28.25 24.7243C28.25 34.9965 33.822 43.9602 42.1004 48.761C50.3783 43.9602 55.9504 34.9965 55.9504 24.7243C55.9504 14.452 50.3783 5.48834 42.1004 0.6875Z" fill="url(#paint18_linear_1455_54643)"/>
<path d="M41.2455 1.2038C34.5304 5.42604 29.7521 12.4522 28.5469 20.6477C30.569 35.9253 53.6241 35.9253 55.6462 20.6477C54.441 12.4522 49.6627 5.42899 42.9476 1.2038C42.9064 1.17709 42.8648 1.15038 42.8232 1.12662C42.5833 0.978297 42.3408 0.829928 42.0952 0.6875C41.8492 0.829928 41.6067 0.975305 41.3668 1.12662C41.3252 1.15333 41.284 1.18004 41.2424 1.2038H41.2455Z" fill="url(#paint19_linear_1455_54643)"/>
<mask id="mask0_1455_54643" style="mask-type:luminance" maskUnits="userSpaceOnUse" x="28" y="0" width="28" height="33">
<path d="M41.2455 1.2038C34.5304 5.42604 29.7521 12.4522 28.5469 20.6477C30.569 35.9253 53.6241 35.9253 55.6462 20.6477C54.441 12.4522 49.6627 5.42899 42.9476 1.2038C42.9064 1.17709 42.8648 1.15038 42.8232 1.12662C42.5833 0.978297 42.3408 0.829928 42.0952 0.6875C41.8492 0.829928 41.6067 0.975305 41.3668 1.12662C41.3252 1.15333 41.284 1.18004 41.2424 1.2038H41.2455Z" fill="white"/>
</mask>
<g mask="url(#mask0_1455_54643)">
<path d="M42.1001 34.2978C46.5952 34.2978 50.2388 30.6463 50.2388 26.1411C50.2388 21.6364 46.5952 17.9844 42.1001 17.9844C37.605 17.9844 33.9609 21.6364 33.9609 26.1411C33.9609 30.6463 37.605 34.2978 42.1001 34.2978Z" fill="url(#paint20_linear_1455_54643)"/>
<path d="M42.1026 34.2985C45.9778 34.2985 49.1198 31.1503 49.1198 27.2665C49.1198 23.3826 45.9778 20.2344 42.1026 20.2344C38.2274 20.2344 35.0859 23.3826 35.0859 27.2665C35.0859 31.1503 38.2274 34.2985 42.1026 34.2985Z" fill="url(#paint21_linear_1455_54643)"/>
<path opacity="0.9" d="M41.9006 20.2336C42.4421 19.2898 44.2155 19.2986 45.862 20.2512C47.505 21.2038 48.3989 22.7377 47.8574 23.6815C47.3154 24.6248 45.542 24.616 43.896 23.6634C42.2525 22.7113 41.3586 21.177 41.9006 20.2336Z" fill="url(#paint22_linear_1455_54643)"/>
</g>
<path d="M34.3672 42.1216C36.5075 44.7831 39.125 47.0408 42.0944 48.7621C49.668 44.3704 54.9734 36.4896 55.8231 27.3125C53.446 32.3091 47.634 40.2789 34.3703 42.1185L34.3672 42.1216Z" fill="url(#paint23_linear_1455_54643)"/>
<path opacity="0.4" d="M22 28.8047C23.2551 37.3385 28.3889 44.6077 35.5479 48.7587C39.7195 46.3404 43.2016 42.8631 45.6321 38.6972C30.1864 41.7772 22.0267 28.8465 22 28.8047Z" fill="url(#paint24_linear_1455_54643)"/>
<defs>
<linearGradient id="paint0_linear_1455_54643" x1="54.9007" y1="46.4014" x2="55.6445" y2="55.4925" gradientUnits="userSpaceOnUse">
<stop stop-color="#5B24C6"/>
<stop offset="0.5" stop-color="#8B4CE3"/>
<stop offset="1" stop-color="#B971FF"/>
</linearGradient>
<linearGradient id="paint1_linear_1455_54643" x1="49.6685" y1="51.9923" x2="69.1291" y2="55.6118" gradientUnits="userSpaceOnUse">
<stop offset="0.13" stop-color="#5B24C6"/>
<stop offset="0.46" stop-color="#8949E1"/>
<stop offset="0.76" stop-color="#AB66F7"/>
<stop offset="0.92" stop-color="#B971FF"/>
</linearGradient>
<linearGradient id="paint2_linear_1455_54643" x1="52.9067" y1="61.3944" x2="45.2125" y2="47.1154" gradientUnits="userSpaceOnUse">
<stop stop-color="white"/>
<stop offset="0.08" stop-color="white" stop-opacity="0.88"/>
<stop offset="0.28" stop-color="white" stop-opacity="0.61"/>
<stop offset="0.46" stop-color="white" stop-opacity="0.39"/>
<stop offset="0.63" stop-color="white" stop-opacity="0.22"/>
<stop offset="0.78" stop-color="white" stop-opacity="0.1"/>
<stop offset="0.91" stop-color="white" stop-opacity="0.03"/>
<stop offset="1" stop-color="white" stop-opacity="0"/>
</linearGradient>
<linearGradient id="paint3_linear_1455_54643" x1="61.8887" y1="40.5103" x2="65.7845" y2="49.6609" gradientUnits="userSpaceOnUse">
<stop offset="0.08" stop-color="#5B24C6"/>
<stop offset="1" stop-color="#B971FF"/>
</linearGradient>
<linearGradient id="paint4_linear_1455_54643" x1="55.2068" y1="44.637" x2="83.7936" y2="37.616" gradientUnits="userSpaceOnUse">
<stop offset="0.19" stop-color="#5B24C6"/>
<stop offset="0.5" stop-color="#8949E1"/>
<stop offset="0.78" stop-color="#AB66F7"/>
<stop offset="0.93" stop-color="#B971FF"/>
</linearGradient>
<linearGradient id="paint5_linear_1455_54643" x1="65.7942" y1="51.8696" x2="50.2884" y2="46.8483" gradientUnits="userSpaceOnUse">
<stop stop-color="white"/>
<stop offset="0.08" stop-color="white" stop-opacity="0.88"/>
<stop offset="0.28" stop-color="white" stop-opacity="0.61"/>
<stop offset="0.46" stop-color="white" stop-opacity="0.39"/>
<stop offset="0.63" stop-color="white" stop-opacity="0.22"/>
<stop offset="0.78" stop-color="white" stop-opacity="0.1"/>
<stop offset="0.91" stop-color="white" stop-opacity="0.03"/>
<stop offset="1" stop-color="white" stop-opacity="0"/>
</linearGradient>
<linearGradient id="paint6_linear_1455_54643" x1="54.0552" y1="28.8891" x2="65.5481" y2="36.2159" gradientUnits="userSpaceOnUse">
<stop offset="0.14" stop-color="#5B24C6"/>
<stop offset="0.4" stop-color="#8244DD"/>
<stop offset="0.69" stop-color="#A964F5"/>
<stop offset="0.84" stop-color="#B971FF"/>
</linearGradient>
<linearGradient id="paint7_linear_1455_54643" x1="58.3335" y1="33.7789" x2="68.2593" y2="8.96754" gradientUnits="userSpaceOnUse">
<stop offset="0.01" stop-color="#5B24C6"/>
<stop offset="0.34" stop-color="#8345DE"/>
<stop offset="0.69" stop-color="#AA64F6"/>
<stop offset="0.88" stop-color="#B971FF"/>
</linearGradient>
<linearGradient id="paint8_linear_1455_54643" x1="71.4402" y1="27.6973" x2="53.9416" y2="38.7333" gradientUnits="userSpaceOnUse">
<stop stop-color="white"/>
<stop offset="0.08" stop-color="white" stop-opacity="0.88"/>
<stop offset="0.28" stop-color="white" stop-opacity="0.61"/>
<stop offset="0.46" stop-color="white" stop-opacity="0.39"/>
<stop offset="0.63" stop-color="white" stop-opacity="0.22"/>
<stop offset="0.78" stop-color="white" stop-opacity="0.1"/>
<stop offset="0.91" stop-color="white" stop-opacity="0.03"/>
<stop offset="1" stop-color="white" stop-opacity="0"/>
</linearGradient>
<linearGradient id="paint9_linear_1455_54643" x1="29.3063" y1="46.4014" x2="28.5625" y2="55.4925" gradientUnits="userSpaceOnUse">
<stop stop-color="#5B24C6"/>
<stop offset="0.5" stop-color="#8B4CE3"/>
<stop offset="1" stop-color="#B971FF"/>
</linearGradient>
<linearGradient id="paint10_linear_1455_54643" x1="34.5405" y1="51.9923" x2="15.0801" y2="55.6118" gradientUnits="userSpaceOnUse">
<stop offset="0.13" stop-color="#5B24C6"/>
<stop offset="0.46" stop-color="#8949E1"/>
<stop offset="0.76" stop-color="#AB66F7"/>
<stop offset="0.92" stop-color="#B971FF"/>
</linearGradient>
<linearGradient id="paint11_linear_1455_54643" x1="31.2928" y1="61.3944" x2="38.9839" y2="47.1154" gradientUnits="userSpaceOnUse">
<stop stop-color="white"/>
<stop offset="0.08" stop-color="white" stop-opacity="0.88"/>
<stop offset="0.28" stop-color="white" stop-opacity="0.61"/>
<stop offset="0.46" stop-color="white" stop-opacity="0.39"/>
<stop offset="0.63" stop-color="white" stop-opacity="0.22"/>
<stop offset="0.78" stop-color="white" stop-opacity="0.1"/>
<stop offset="0.91" stop-color="white" stop-opacity="0.03"/>
<stop offset="1" stop-color="white" stop-opacity="0"/>
</linearGradient>
<linearGradient id="paint12_linear_1455_54643" x1="22.3017" y1="40.5103" x2="18.4057" y2="49.6609" gradientUnits="userSpaceOnUse">
<stop offset="0.08" stop-color="#5B24C6"/>
<stop offset="1" stop-color="#B971FF"/>
</linearGradient>
<linearGradient id="paint13_linear_1455_54643" x1="29.0053" y1="44.637" x2="0.418639" y2="37.616" gradientUnits="userSpaceOnUse">
<stop offset="0.19" stop-color="#5B24C6"/>
<stop offset="0.5" stop-color="#8949E1"/>
<stop offset="0.78" stop-color="#AB66F7"/>
<stop offset="0.93" stop-color="#B971FF"/>
</linearGradient>
<linearGradient id="paint14_linear_1455_54643" x1="18.3932" y1="51.8696" x2="33.8989" y2="46.8483" gradientUnits="userSpaceOnUse">
<stop stop-color="white"/>
<stop offset="0.08" stop-color="white" stop-opacity="0.88"/>
<stop offset="0.28" stop-color="white" stop-opacity="0.61"/>
<stop offset="0.46" stop-color="white" stop-opacity="0.39"/>
<stop offset="0.63" stop-color="white" stop-opacity="0.22"/>
<stop offset="0.78" stop-color="white" stop-opacity="0.1"/>
<stop offset="0.91" stop-color="white" stop-opacity="0.03"/>
<stop offset="1" stop-color="white" stop-opacity="0"/>
</linearGradient>
<linearGradient id="paint15_linear_1455_54643" x1="30.1361" y1="28.8891" x2="18.6428" y2="36.2159" gradientUnits="userSpaceOnUse">
<stop offset="0.14" stop-color="#5B24C6"/>
<stop offset="0.4" stop-color="#8244DD"/>
<stop offset="0.69" stop-color="#A964F5"/>
<stop offset="0.84" stop-color="#B971FF"/>
</linearGradient>
<linearGradient id="paint16_linear_1455_54643" x1="25.88" y1="33.7789" x2="15.957" y2="8.96752" gradientUnits="userSpaceOnUse">
<stop offset="0.01" stop-color="#5B24C6"/>
<stop offset="0.34" stop-color="#8345DE"/>
<stop offset="0.69" stop-color="#AA64F6"/>
<stop offset="0.88" stop-color="#B971FF"/>
</linearGradient>
<linearGradient id="paint17_linear_1455_54643" x1="18.0327" y1="41.5879" x2="35.5313" y2="52.6239" gradientUnits="userSpaceOnUse">
<stop stop-color="white"/>
<stop offset="0.08" stop-color="white" stop-opacity="0.88"/>
<stop offset="0.28" stop-color="white" stop-opacity="0.61"/>
<stop offset="0.46" stop-color="white" stop-opacity="0.39"/>
<stop offset="0.63" stop-color="white" stop-opacity="0.22"/>
<stop offset="0.78" stop-color="white" stop-opacity="0.1"/>
<stop offset="0.91" stop-color="white" stop-opacity="0.03"/>
<stop offset="1" stop-color="white" stop-opacity="0"/>
</linearGradient>
<linearGradient id="paint18_linear_1455_54643" x1="25.0319" y1="43.8238" x2="45.2427" y2="21.3081" gradientUnits="userSpaceOnUse">
<stop stop-color="#5B24C6"/>
<stop offset="0.16" stop-color="#6E33D1"/>
<stop offset="0.8" stop-color="#B971FF"/>
</linearGradient>
<linearGradient id="paint19_linear_1455_54643" x1="42.0978" y1="32.4357" x2="42.0978" y2="-0.392524" gradientUnits="userSpaceOnUse">
<stop offset="0.19" stop-color="#5B24C6"/>
<stop offset="0.29" stop-color="#6930CF"/>
<stop offset="0.85" stop-color="#B971FF"/>
</linearGradient>
<linearGradient id="paint20_linear_1455_54643" x1="33.9609" y1="26.1411" x2="50.2388" y2="26.1411" gradientUnits="userSpaceOnUse">
<stop stop-color="#FBB549"/>
<stop offset="0.494792" stop-color="#FADC73"/>
<stop offset="1" stop-color="#FCE289"/>
</linearGradient>
<linearGradient id="paint21_linear_1455_54643" x1="35.0859" y1="27.2665" x2="49.1198" y2="27.2665" gradientUnits="userSpaceOnUse">
<stop stop-color="#FBB549"/>
<stop offset="0.494792" stop-color="#FADC73"/>
<stop offset="1" stop-color="#FCE289"/>
</linearGradient>
<linearGradient id="paint22_linear_1455_54643" x1="45.9294" y1="20.3551" x2="43.554" y2="23.9485" gradientUnits="userSpaceOnUse">
<stop stop-color="white"/>
<stop offset="1" stop-color="white" stop-opacity="0"/>
</linearGradient>
<linearGradient id="paint23_linear_1455_54643" x1="61.2945" y1="25.4047" x2="36.6237" y2="47.1333" gradientUnits="userSpaceOnUse">
<stop stop-color="#5B24C6"/>
<stop offset="0.15" stop-color="#6930CF"/>
<stop offset="1" stop-color="#B971FF"/>
</linearGradient>
<linearGradient id="paint24_linear_1455_54643" x1="21.5767" y1="28.2234" x2="41.288" y2="44.4828" gradientUnits="userSpaceOnUse">
<stop stop-color="white"/>
<stop offset="0.15" stop-color="white" stop-opacity="0.83"/>
<stop offset="0.57" stop-color="white" stop-opacity="0.39"/>
<stop offset="0.87" stop-color="white" stop-opacity="0.11"/>
<stop offset="1" stop-color="white" stop-opacity="0"/>
</linearGradient>
</defs>
</svg>
