<svg width="29" height="30" viewBox="0 0 29 30" fill="none" xmlns="http://www.w3.org/2000/svg">
<path d="M19.0736 15.2239C19.0736 16.4241 18.5983 17.5752 17.7522 18.4239C16.9061 19.2726 15.7586 19.7494 14.562 19.7494C13.3655 19.7494 12.2179 19.2726 11.3719 18.4239C10.5258 17.5752 10.0505 16.4241 10.0505 15.2239C10.0505 14.9659 10.0775 14.714 10.1241 14.4696H8.5466V20.4991C8.5466 20.9185 8.88496 21.2579 9.30303 21.2579H19.8225C20.0229 21.2575 20.2149 21.1774 20.3564 21.0352C20.498 20.8929 20.5774 20.7001 20.5774 20.4991V14.4696H18.9999C19.0465 14.714 19.0736 14.9659 19.0736 15.2239ZM14.562 18.2409C14.9571 18.2408 15.3483 18.1627 15.7133 18.0109C16.0782 17.8592 16.4098 17.6368 16.6891 17.3565C16.9684 17.0762 17.1899 16.7435 17.341 16.3773C17.4921 16.0111 17.5698 15.6187 17.5697 15.2224C17.5696 14.8261 17.4917 14.4337 17.3404 14.0676C17.1892 13.7015 16.9675 13.3689 16.688 13.0887C16.4086 12.8086 16.0769 12.5863 15.7119 12.4348C15.3468 12.2832 14.9556 12.2053 14.5605 12.2054C13.7626 12.2056 12.9975 12.5237 12.4334 13.0898C11.8694 13.6559 11.5526 14.4235 11.5528 15.2239C11.553 16.0242 11.8702 16.7917 12.4345 17.3576C12.9988 17.9234 13.7641 18.2411 14.562 18.2409ZM18.1713 12.056H19.9744C20.0942 12.056 20.2091 12.0084 20.2939 11.9236C20.3788 11.8387 20.4267 11.7236 20.4271 11.6035V9.79476C20.4271 9.67433 20.3794 9.55884 20.2945 9.47369C20.2096 9.38853 20.0945 9.34069 19.9744 9.34069H18.1713C18.0512 9.34069 17.9361 9.38853 17.8512 9.47369C17.7663 9.55884 17.7186 9.67433 17.7186 9.79476V11.6035C17.7201 11.8524 17.9231 12.056 18.1713 12.056ZM14.562 0.742188C10.7331 0.742188 7.06097 2.26793 4.35351 4.98378C1.64604 7.69962 0.125 11.3831 0.125 15.2239C0.125 19.0647 1.64604 22.7481 4.35351 25.464C7.06097 28.1798 10.7331 29.7056 14.562 29.7056C16.4579 29.7056 18.3353 29.331 20.0868 28.6032C21.8384 27.8755 23.4299 26.8087 24.7705 25.464C26.1111 24.1192 27.1746 22.5228 27.9001 20.7658C28.6256 19.0088 28.999 17.1256 28.999 15.2239C28.999 13.3221 28.6256 11.439 27.9001 9.68198C27.1746 7.92498 26.1111 6.32853 24.7705 4.98378C23.4299 3.63903 21.8384 2.57231 20.0868 1.84454C18.3353 1.11677 16.4579 0.742188 14.562 0.742188ZM22.0813 21.0905C22.0813 22.0122 21.3294 22.7664 20.4105 22.7664H8.71352C7.79467 22.7664 7.04274 22.0122 7.04274 21.0905V9.35729C7.04274 8.43559 7.79467 7.68133 8.71352 7.68133H20.4105C21.3294 7.68133 22.0813 8.43559 22.0813 9.35729V21.0905Z" fill="url(#paint0_linear_1670_54346)"/>
<defs>
<linearGradient id="paint0_linear_1670_54346" x1="0.125" y1="15.3498" x2="28.999" y2="15.3498" gradientUnits="userSpaceOnUse">
<stop stop-color="#5B24C6"/>
<stop offset="0.479167" stop-color="#8949E1"/>
<stop offset="1" stop-color="#B971FF"/>
</linearGradient>
</defs>
</svg>
