<svg width="184" height="28" viewBox="0 0 184 28" fill="none" xmlns="http://www.w3.org/2000/svg">
<path d="M12.0358 6.94154C11.9381 5.9442 11.5761 5.20121 10.9505 4.71221C10.3248 4.22321 9.39581 3.97887 8.16381 3.97887C7.01014 3.97887 6.13981 4.17454 5.55314 4.56554C4.96647 4.95654 4.67314 5.52388 4.67314 6.26688C4.67314 6.89254 4.89814 7.39121 5.34781 7.76287C5.81714 8.13454 6.59948 8.45721 7.69448 8.73088C8.80914 9.00454 9.86514 9.27854 10.8625 9.55221C11.8795 9.80654 12.7495 10.0999 13.4731 10.4322C13.9035 10.6279 14.3041 10.8525 14.6758 11.1069C15.0475 11.3612 15.3701 11.6739 15.6438 12.0455C15.9175 12.4172 16.1328 12.8572 16.2891 13.3655C16.4455 13.8739 16.5238 14.4705 16.5238 15.1549C16.5238 16.2305 16.3281 17.1592 15.9371 17.9415C15.5655 18.7042 15.0278 19.3399 14.3238 19.8482C13.6395 20.3565 12.8181 20.7282 11.8598 20.9629C10.9211 21.2172 9.88481 21.3442 8.75048 21.3442C7.53814 21.3442 6.43314 21.2072 5.43581 20.9335C4.43848 20.6792 3.57814 20.2785 2.85447 19.7309C2.13081 19.1832 1.5638 18.5085 1.15314 17.7069C0.742471 16.8855 0.527479 15.9272 0.507812 14.8322H4.43848C4.47748 15.8295 4.87848 16.6215 5.64114 17.2082C6.42348 17.7752 7.46947 18.0589 8.77981 18.0589C9.99214 18.0589 10.9211 17.8242 11.5665 17.3549C12.2315 16.8659 12.5638 16.1815 12.5638 15.3015C12.5638 15.0082 12.5148 14.7442 12.4171 14.5095C12.3388 14.2749 12.1825 14.0599 11.9478 13.8642C11.7328 13.6492 11.4295 13.4632 11.0385 13.3069C10.6475 13.1309 10.1488 12.9745 9.54247 12.8375C8.33014 12.5639 7.30347 12.3292 6.46247 12.1335C5.64114 11.9185 4.88814 11.6545 4.20381 11.3415C3.14781 10.8722 2.33614 10.2659 1.76914 9.52287C1.22148 8.76021 0.947805 7.76287 0.947805 6.53087C0.947805 5.65087 1.09447 4.84921 1.38781 4.12554C1.68114 3.38254 2.12114 2.74687 2.7078 2.21887C3.31414 1.69087 4.05714 1.28021 4.93714 0.986875C5.83681 0.693542 6.88281 0.546875 8.07581 0.546875C9.30781 0.546875 10.4028 0.703207 11.3611 1.01621C12.3195 1.32921 13.1211 1.76921 13.7665 2.33621C14.4315 2.90321 14.9398 3.57788 15.2918 4.36021C15.6635 5.14254 15.8688 6.00287 15.9078 6.94154H12.0358ZM25.8071 11.1655H29.3565V15.2722C29.3565 16.0349 29.2391 16.7682 29.0045 17.4722C28.7895 18.1565 28.4375 18.7725 27.9485 19.3202C27.4791 19.8482 26.8728 20.2685 26.1298 20.5815C25.4061 20.8945 24.5361 21.0509 23.5191 21.0509C22.4631 21.0509 21.5635 20.8945 20.8205 20.5815C20.0775 20.2685 19.4615 19.8482 18.9725 19.3202C18.5031 18.7922 18.1608 18.1762 17.9458 17.4722C17.7308 16.7682 17.6231 16.0252 17.6231 15.2429V2.33621H21.3778V6.23754H29.3565V8.93621H21.3778V14.8615C21.3778 15.7805 21.5441 16.4945 21.8765 17.0029C22.2285 17.4919 22.7955 17.7362 23.5778 17.7362C24.3405 17.7362 24.8978 17.4919 25.2498 17.0029C25.6215 16.5139 25.8071 15.8199 25.8071 14.9202V11.1655ZM40.0961 18.7629C39.8225 19.4082 39.3238 19.9165 38.6001 20.2882C37.8961 20.6402 37.0945 20.8162 36.1948 20.8162C35.4321 20.8162 34.7281 20.6989 34.0828 20.4642C33.4375 20.2099 32.8801 19.8579 32.4108 19.4082C31.9415 18.9389 31.5698 18.3912 31.2961 17.7655C31.0418 17.1202 30.9148 16.3965 30.9148 15.5949V6.23754H34.7281V15.0375C34.7281 16.8365 35.5398 17.7362 37.1628 17.7362C38.0428 17.7362 38.7468 17.4819 39.2748 16.9735C39.8225 16.4652 40.0961 15.8199 40.0961 15.0375V6.23754H43.9095V21.0509C43.9095 22.0679 43.7335 22.9772 43.3815 23.7789C43.0491 24.5805 42.5798 25.2552 41.9735 25.8029C41.3868 26.3505 40.6828 26.7709 39.8615 27.0642C39.0598 27.3575 38.1991 27.5042 37.2801 27.5042C35.1485 27.5042 33.5548 26.9665 32.4988 25.8909C31.4428 24.8152 30.9148 23.3389 30.9148 21.4615H34.4641C34.4641 22.3219 34.7085 22.9965 35.1975 23.4855C35.7058 23.9745 36.4588 24.2189 37.4561 24.2189C37.8081 24.2189 38.1405 24.1405 38.4535 23.9842C38.7665 23.8472 39.0401 23.6419 39.2748 23.3682C39.5291 23.1139 39.7245 22.7912 39.8615 22.4002C40.0178 22.0092 40.0961 21.5789 40.0961 21.1095V18.7629ZM45.6388 20.6695V0.95754H49.4521V20.6695H45.6388ZM60.5568 12.0455C60.5371 11.5175 60.4395 11.0579 60.2635 10.6669C60.1071 10.2562 59.8918 9.92387 59.6181 9.66954C59.3445 9.39587 59.0315 9.20021 58.6795 9.08288C58.3275 8.94588 57.9658 8.87754 57.5941 8.87754C56.8315 8.87754 56.1665 9.16121 55.5995 9.7282C55.0518 10.2759 54.7391 11.0482 54.6608 12.0455H60.5568ZM54.5435 14.4509C54.6021 15.5459 54.9151 16.4162 55.4821 17.0615C56.0688 17.7069 56.8315 18.0295 57.7701 18.0295C58.3958 18.0295 58.9435 17.8925 59.4128 17.6189C59.9018 17.3255 60.2145 16.9245 60.3515 16.4162H64.2821C63.8325 17.9025 63.0501 19.0465 61.9355 19.8482C60.8208 20.6499 59.4911 21.0509 57.9461 21.0509C53.1355 21.0509 50.7301 18.4305 50.7301 13.1895C50.7301 12.0749 50.8865 11.0679 51.1995 10.1682C51.5125 9.26854 51.9621 8.49621 52.5488 7.85088C53.1551 7.20554 53.8885 6.71654 54.7488 6.38421C55.6091 6.03221 56.5968 5.85621 57.7115 5.85621C59.9408 5.85621 61.6225 6.56987 62.7568 7.99754C63.9105 9.4252 64.4875 11.5762 64.4875 14.4509H54.5435ZM74.4881 10.6082C74.3901 9.9042 74.1361 9.41521 73.7255 9.14154C73.3148 8.84821 72.6695 8.70154 71.7895 8.70154C71.0658 8.70154 70.5085 8.79921 70.1175 8.99487C69.7261 9.17087 69.5308 9.47387 69.5308 9.9042C69.5308 10.3345 69.7261 10.6669 70.1175 10.9015C70.5085 11.1165 71.0951 11.3319 71.8775 11.5469C72.6988 11.7815 73.4808 11.9965 74.2241 12.1922C74.9671 12.3682 75.6221 12.5639 76.1895 12.7789C76.9521 13.0919 77.5388 13.5219 77.9495 14.0695C78.3601 14.5975 78.5655 15.3309 78.5655 16.2695C78.5655 17.7752 78.0275 18.9485 76.9521 19.7895C75.8961 20.6305 74.3315 21.0509 72.2588 21.0509C70.0295 21.0509 68.3181 20.5815 67.1255 19.6429C65.9521 18.7042 65.3458 17.5015 65.3068 16.0349H69.2375C69.2375 16.7192 69.5015 17.2472 70.0295 17.6189C70.5575 17.9905 71.2908 18.1762 72.2295 18.1762C72.9138 18.1762 73.5101 18.0685 74.0188 17.8535C74.5271 17.6189 74.7815 17.2279 74.7815 16.6802C74.7815 16.1719 74.5468 15.8099 74.0775 15.5949C73.6275 15.3799 73.0898 15.1939 72.4641 15.0375C71.2515 14.7442 70.2738 14.4802 69.5308 14.2455C68.7875 14.0109 68.1618 13.7272 67.6535 13.3949C66.9688 12.9645 66.4898 12.4759 66.2161 11.9282C65.9618 11.3805 65.8348 10.7842 65.8348 10.1389C65.8348 9.53254 65.9421 8.96554 66.1575 8.43754C66.3725 7.90954 66.7245 7.45987 67.2135 7.08821C67.7021 6.69721 68.3281 6.39387 69.0908 6.17887C69.8728 5.96387 70.8115 5.85621 71.9068 5.85621C73.9991 5.85621 75.5341 6.25721 76.5121 7.05887C77.5095 7.86054 78.0568 9.04387 78.1548 10.6082H74.4881ZM96.7135 13.9815C96.4981 15.0962 96.1561 16.1032 95.6868 17.0029C95.2175 17.9025 94.6208 18.6749 93.8975 19.3202C93.1935 19.9655 92.3721 20.4642 91.4335 20.8162C90.4948 21.1682 89.4581 21.3442 88.3241 21.3442C87.0528 21.3442 85.8601 21.1292 84.7455 20.6989C83.6501 20.2685 82.7018 19.6232 81.9001 18.7629C81.0981 17.9025 80.4628 16.8465 79.9935 15.5949C79.5435 14.3239 79.3188 12.8472 79.3188 11.1655C79.3188 9.52288 79.5241 8.04654 79.9348 6.73621C80.3648 5.40654 80.9711 4.29187 81.7535 3.39221C82.5355 2.47321 83.4841 1.76921 84.5988 1.28021C85.7328 0.791207 86.9941 0.546875 88.3828 0.546875C89.5951 0.546875 90.6901 0.732541 91.6681 1.10421C92.6655 1.45621 93.5161 1.95487 94.2201 2.60021C94.9435 3.22587 95.5108 3.96921 95.9215 4.82954C96.3515 5.68987 96.6155 6.60921 96.7135 7.58687H92.6361C92.3621 6.47221 91.8341 5.61187 91.0521 5.00554C90.2698 4.37987 89.3898 4.06687 88.4121 4.06687C86.7108 4.06687 85.4591 4.68287 84.6575 5.91487C83.8555 7.1272 83.4548 8.79921 83.4548 10.9309C83.4548 13.1015 83.8458 14.7932 84.6281 16.0055C85.4298 17.1985 86.6228 17.7949 88.2068 17.7949C89.4191 17.7949 90.3871 17.4722 91.1108 16.8269C91.8538 16.1619 92.3621 15.2135 92.6361 13.9815H96.7135ZM104.729 17.8535C107.057 17.8535 108.22 16.3869 108.22 13.4535C108.22 10.5399 107.057 9.08288 104.729 9.08288C102.402 9.08288 101.239 10.5399 101.239 13.4535C101.239 16.3869 102.402 17.8535 104.729 17.8535ZM104.729 21.0509C103.556 21.0509 102.51 20.8652 101.591 20.4935C100.672 20.1219 99.8895 19.6039 99.2441 18.9389C98.6185 18.2739 98.1395 17.4722 97.8068 16.5335C97.4745 15.5949 97.3081 14.5682 97.3081 13.4535C97.3081 12.3192 97.4745 11.2829 97.8068 10.3442C98.1588 9.40554 98.6575 8.60387 99.3028 7.93887C99.9481 7.27387 100.721 6.76554 101.62 6.41354C102.539 6.04187 103.576 5.85621 104.729 5.85621C105.864 5.85621 106.881 6.04187 107.78 6.41354C108.68 6.76554 109.442 7.27387 110.068 7.93887C110.713 8.58421 111.202 9.37621 111.535 10.3149C111.887 11.2535 112.063 12.2999 112.063 13.4535C112.063 14.6072 111.887 15.6535 111.535 16.5922C111.202 17.5112 110.713 18.3032 110.068 18.9682C109.442 19.6332 108.67 20.1512 107.751 20.5229C106.851 20.8749 105.844 21.0509 104.729 21.0509ZM122.683 20.6695V11.9282C122.683 10.8135 122.498 10.0605 122.126 9.66954C121.754 9.27854 121.119 9.08288 120.219 9.08288C118.244 9.08288 117.257 10.1879 117.257 12.3975V20.6695H113.443V6.23754H117.081V8.34954C117.53 7.5282 118.127 6.91221 118.87 6.50154C119.613 6.07121 120.571 5.85621 121.745 5.85621C122.429 5.85621 123.065 5.96387 123.651 6.17887C124.238 6.37454 124.737 6.67754 125.147 7.08821C125.578 7.49887 125.91 8.00721 126.145 8.61354C126.399 9.20021 126.526 9.88454 126.526 10.6669V20.6695H122.683ZM137.436 20.6695V11.9282C137.436 10.8135 137.25 10.0605 136.879 9.66954C136.507 9.27854 135.871 9.08288 134.972 9.08288C132.997 9.08288 132.009 10.1879 132.009 12.3975V20.6695H128.196V6.23754H131.833V8.34954C132.283 7.5282 132.879 6.91221 133.623 6.50154C134.366 6.07121 135.324 5.85621 136.497 5.85621C137.182 5.85621 137.817 5.96387 138.404 6.17887C138.991 6.37454 139.489 6.67754 139.9 7.08821C140.33 7.49887 140.663 8.00721 140.897 8.61354C141.151 9.20021 141.279 9.88454 141.279 10.6669V20.6695H137.436ZM152.453 12.0455C152.433 11.5175 152.335 11.0579 152.159 10.6669C152.003 10.2562 151.788 9.92387 151.514 9.66954C151.24 9.39587 150.927 9.20021 150.575 9.08288C150.223 8.94588 149.861 8.87754 149.49 8.87754C148.727 8.87754 148.062 9.16121 147.495 9.7282C146.948 10.2759 146.635 11.0482 146.557 12.0455H152.453ZM146.439 14.4509C146.498 15.5459 146.811 16.4162 147.378 17.0615C147.965 17.7069 148.727 18.0295 149.666 18.0295C150.292 18.0295 150.839 17.8925 151.309 17.6189C151.797 17.3255 152.11 16.9245 152.247 16.4162H156.178C155.728 17.9025 154.946 19.0465 153.831 19.8482C152.717 20.6499 151.387 21.0509 149.842 21.0509C145.031 21.0509 142.626 18.4305 142.626 13.1895C142.626 12.0749 142.782 11.0679 143.095 10.1682C143.408 9.26854 143.858 8.49621 144.445 7.85088C145.051 7.20554 145.784 6.71654 146.645 6.38421C147.505 6.03221 148.493 5.85621 149.607 5.85621C151.837 5.85621 153.518 6.56987 154.653 7.99754C155.806 9.4252 156.383 11.5762 156.383 14.4509H146.439ZM170.696 15.4482C170.598 16.2892 170.354 17.0519 169.962 17.7362C169.591 18.4205 169.112 19.0072 168.525 19.4962C167.938 19.9852 167.264 20.3665 166.501 20.6402C165.758 20.9139 164.946 21.0509 164.066 21.0509C163.089 21.0509 162.189 20.8945 161.368 20.5815C160.566 20.2492 159.872 19.7602 159.285 19.1149C158.698 18.4499 158.239 17.6385 157.906 16.6802C157.594 15.7025 157.437 14.5682 157.437 13.2775C157.437 11.9869 157.594 10.8722 157.906 9.93354C158.239 8.99488 158.698 8.2322 159.285 7.64554C159.872 7.0392 160.576 6.58954 161.397 6.29621C162.238 6.00287 163.167 5.85621 164.184 5.85621C165.122 5.85621 165.973 5.9832 166.736 6.23754C167.518 6.49187 168.193 6.86321 168.76 7.35221C169.346 7.84121 169.806 8.42787 170.138 9.11221C170.471 9.79654 170.666 10.5592 170.725 11.4002H166.882C166.785 10.6572 166.482 10.0802 165.973 9.66954C165.484 9.23921 164.878 9.02421 164.154 9.02421C163.744 9.02421 163.362 9.09254 163.01 9.22954C162.658 9.36654 162.346 9.60121 162.072 9.93354C161.818 10.2465 161.612 10.6765 161.456 11.2242C161.299 11.7522 161.221 12.4072 161.221 13.1895C161.221 14.7735 161.505 15.9469 162.072 16.7095C162.639 17.4722 163.294 17.8535 164.037 17.8535C164.78 17.8535 165.416 17.6482 165.944 17.2375C166.472 16.8269 166.775 16.2305 166.853 15.4482H170.696ZM180.008 11.1655H183.557V15.2722C183.557 16.0349 183.44 16.7682 183.205 17.4722C182.99 18.1565 182.638 18.7725 182.149 19.3202C181.68 19.8482 181.073 20.2685 180.33 20.5815C179.607 20.8945 178.736 21.0509 177.72 21.0509C176.664 21.0509 175.764 20.8945 175.021 20.5815C174.278 20.2685 173.662 19.8482 173.173 19.3202C172.704 18.7922 172.361 18.1762 172.146 17.4722C171.931 16.7682 171.824 16.0252 171.824 15.2429V2.33621H175.578V6.23754H183.557V8.93621H175.578V14.8615C175.578 15.7805 175.744 16.4945 176.077 17.0029C176.429 17.4919 176.996 17.7362 177.778 17.7362C178.541 17.7362 179.098 17.4919 179.45 17.0029C179.822 16.5139 180.008 15.8199 180.008 14.9202V11.1655Z" fill="#5B24C6"/>
</svg>
